# xmcd
#
# Track frame offsets: 
#        182
#        12502
#        23605
#        29947
#        41570
#        53925
#        66397
#        75800
#        88330
#        98147
#        111157
#        121712
#
# Disc length: 1737 seconds
#
# Revision: 3
# Processed by: cddbd v1.5.2PL0 Copyright (c) Steve Scherf et al.
# Submitted via: ExactAudioCopy v1.3
#
DISCID=9806c70c
DTITLE=Various Artist - Country Special
DYEAR=1989
DGENRE=Country
TTITLE0=Hank Locklin - Queen Of Hearts
TTITLE1=Sanford Clark - Big Time Day Tomorrow
TTITLE2=Lee Conway - People
TTITLE3=Patsy Cline - Let The Teardrops Fall
TTITLE4=Faron Young - Country Girl
TTITLE5=Bobby Bare - When Love Is gone
TTITLE6=Country Deputies - Red Haired Boy
TTITLE7=Patsy Cline - Fingerprints
TTITLE8=Buck Owens - There Goes My love
TTITLE9=Bobby Bare - I took A Memory To Lunch
TTITLE10=The Jordanaires - You're Wasting Your Time Girl
TTITLE11=George Jones - That's The way I Feel
EXTD=
EXTT0=
EXTT1=
EXTT2=
EXTT3=
EXTT4=
EXTT5=
EXTT6=
EXTT7=
EXTT8=
EXTT9=
EXTT10=
EXTT11=
PLAYORDER=
